<svg width="295" height="35" viewBox="0 0 295 35" fill="none" xmlns="http://www.w3.org/2000/svg">
<path d="M0.642636 2.27986C0.214212 2.27986 0 2.3643 0 2.95537V10.0905C0 10.4282 0.257054 10.5971 0.514108 10.5971C0.814005 10.5971 1.15674 10.386 1.15674 10.0483C1.15674 7.43064 3.42739 3.96864 7.2832 3.96864H11.2247V19.9276C11.2247 25.7539 11.0533 28.7515 10.9676 29.9337C10.7534 32.4246 9.63953 33.4379 6.25499 33.4379C5.74088 33.4379 5.48382 33.7756 5.48382 34.0712C5.48382 34.3245 5.69804 34.5778 6.12646 34.5778H21.464C21.8925 34.5778 22.1067 34.3245 22.1067 34.0712C22.1067 33.7756 21.8496 33.4379 21.2927 33.4379C18.1652 33.4379 16.8371 32.4668 16.5372 29.9337C16.4086 28.7515 16.2801 25.6695 16.2801 19.9698V3.96864H25.277C27.7619 3.96864 28.0618 5.06634 28.0618 9.45718V23.0096C28.0618 25.8384 27.8904 29.047 27.8047 30.2292C27.5905 32.7201 26.905 33.4801 24.5058 33.4801C23.9917 33.4801 23.7347 33.7756 23.7347 34.0712C23.7347 34.3245 23.9489 34.5778 24.3773 34.5778H36.2446C36.6731 34.5778 36.8873 34.3245 36.8873 34.0712C36.8873 33.7756 36.6302 33.4801 36.1161 33.4801C33.5884 33.4801 33.3314 32.7624 32.9886 30.2292C32.8173 29.047 32.7744 25.8384 32.7744 23.0096V15.7057C35.8162 13.3414 37.5299 11.7793 39.4578 11.7793C41.5999 11.7793 42.9281 13.1725 42.9281 22.0386C42.9281 31.9602 42.1569 33.4801 39.6292 33.4801C39.1151 33.4801 38.858 33.7756 38.858 34.0712C38.858 34.3245 39.0722 34.5778 39.5007 34.5778H51.111C51.5394 34.5778 51.7536 34.3245 51.7536 34.0712C51.7536 33.7756 51.4965 33.4801 50.9824 33.4801C48.6689 33.4801 47.8549 32.7624 47.8549 30.2292V15.1568C47.8549 11.5259 45.7557 8.82388 42.1997 8.82388C39.1151 8.82388 36.8873 10.5971 34.1454 12.877L32.7744 14.0169V1.05549C32.7744 0.253319 32.4317 0 31.9176 0C30.5895 0 30.2467 2.27986 25.1485 2.27986H0.642636Z" fill="#F8FAFC"/>
<path d="M72.6757 27.7805C72.6757 27.4849 72.59 27.2738 72.333 27.2738C72.1616 27.2738 71.9902 27.3583 71.8617 27.6116C70.2766 30.8625 68.263 31.7491 65.3497 31.7491C60.637 31.7491 57.6809 27.1472 57.6809 19.1255H70.0623C71.9046 19.1255 72.6757 18.5766 72.6757 17.0567C72.6757 10.7238 68.0059 8.82388 64.45 8.82388C56.567 8.82388 52.6683 14.8613 52.6683 22.6719C52.6683 30.9469 57.1668 35 63.5503 35C70.1052 35 72.6757 30.3981 72.6757 27.7805ZM63.5931 10.1749C66.078 10.1749 67.3204 12.0326 67.3204 15.9168C67.3204 16.8456 67.0634 17.3945 65.6496 17.4789L57.7666 18.0277C58.2807 13.8902 59.9944 10.1749 63.5931 10.1749Z" fill="#F8FAFC"/>
<path d="M85.4444 35C92.4706 35 97.6545 30.8625 97.6545 21.152C97.6545 13.4258 93.6702 8.82388 86.9011 8.82388C79.8749 8.82388 74.7338 13.2147 74.7338 22.9252C74.7338 30.6514 78.6753 35 85.4444 35ZM86.6012 33.5223C81.9313 33.5223 79.9606 28.3293 79.9606 21.4053C79.9606 15.0302 81.5886 10.2593 86.0014 10.2593C90.5855 10.2593 92.3849 15.7057 92.3849 22.6297C92.3849 29.0048 91.0568 33.5223 86.6012 33.5223Z" fill="#F8FAFC"/>
<path d="M107.775 16.0012C107.775 12.4548 107.475 9.33052 105.847 9.33052C105.162 9.33052 100.149 10.0483 98.3929 10.5127C97.9216 10.6393 97.7502 10.8926 97.7502 11.1037C97.7502 11.3571 97.9644 11.5682 98.3929 11.5682H99.4211C102.977 11.5682 103.234 15.9168 103.234 21.1942V23.0096C103.234 25.8384 103.063 28.7515 102.977 29.9337C102.763 32.4246 101.906 33.4801 99.6781 33.4801C99.164 33.4801 98.907 33.7756 98.907 34.0712C98.907 34.3245 99.1212 34.5778 99.5496 34.5778H112.916C113.345 34.5778 113.559 34.3245 113.559 34.0712C113.559 33.7756 113.302 33.4801 112.788 33.4801C109.275 33.4801 108.247 32.4668 107.904 29.9337C107.775 28.7515 107.647 26.9361 107.647 21.8275C107.647 16.8456 109.66 12.6659 112.06 12.6659C113.902 12.6659 113.945 14.608 113.945 15.3679C115.23 15.3679 117.8 14.8191 117.8 12.2437C117.8 9.87937 116.301 8.82388 114.116 8.82388C111.803 8.82388 109.146 10.1749 107.775 16.0012Z" fill="#F8FAFC"/>
<path d="M137.366 27.7805C137.366 27.4849 137.28 27.2738 137.023 27.2738C136.852 27.2738 136.681 27.3583 136.552 27.6116C134.967 30.8625 132.953 31.7491 130.04 31.7491C125.327 31.7491 122.371 27.1472 122.371 19.1255H134.753C136.595 19.1255 137.366 18.5766 137.366 17.0567C137.366 10.7238 132.696 8.82388 129.14 8.82388C121.257 8.82388 117.359 14.8613 117.359 22.6719C117.359 30.9469 121.857 35 128.241 35C134.795 35 137.366 30.3981 137.366 27.7805ZM128.283 10.1749C130.768 10.1749 132.011 12.0326 132.011 15.9168C132.011 16.8456 131.754 17.3945 130.34 17.4789L122.457 18.0277C122.971 13.8902 124.685 10.1749 128.283 10.1749Z" fill="#F8FAFC"/>
<path d="M161.659 14.0591C161.274 11.0193 159.432 8.82388 156.261 8.82388C153.177 8.82388 151.463 10.5971 148.721 12.877L147.436 13.9324C147.479 13.0458 147.479 11.9059 147.479 11.3993C147.479 9.92159 146.793 9.33052 145.85 9.33052C144.351 9.33052 138.182 10.3016 138.182 11.146C138.182 11.3571 138.31 11.5682 138.739 11.5682H139.938C142.68 11.5682 142.723 15.7057 142.723 20.9831V23.0096C142.723 31.2847 142.723 33.4379 139.167 33.4801C138.653 33.4801 138.396 33.7756 138.396 34.0712C138.396 34.3245 138.61 34.5778 139.039 34.5778H150.82C151.249 34.5778 151.463 34.3245 151.463 34.0712C151.463 33.7756 151.206 33.4801 150.649 33.4801C147.993 33.4801 147.907 32.5513 147.564 30.0181C147.393 28.8359 147.307 25.8384 147.307 23.0096V21.1942C147.307 19.1677 147.307 17.0989 147.35 15.7057C150.392 13.3414 151.806 11.9481 153.605 11.9481C155.576 11.9481 156.818 13.1725 156.818 22.0386C156.818 31.9602 156.047 33.4801 153.519 33.4801C153.005 33.4801 152.748 33.7756 152.748 34.0712C152.748 34.3245 152.962 34.5778 153.391 34.5778H165.001C165.429 34.5778 165.644 34.3245 165.644 34.0712C165.644 33.7756 165.387 33.4801 164.873 33.4801C162.559 33.4801 161.745 32.7624 161.745 30.2292V15.7057C164.787 13.3414 166.201 11.9481 168 11.9481C169.971 11.9481 171.213 13.1725 171.213 22.0386C171.213 31.9602 170.442 33.4801 167.914 33.4801C167.4 33.4801 167.143 33.7756 167.143 34.0712C167.143 34.3245 167.357 34.5778 167.786 34.5778H179.396C179.824 34.5778 180.039 34.3245 180.039 34.0712C180.039 33.7756 179.782 33.4801 179.268 33.4801C176.954 33.4801 176.14 32.7624 176.14 30.2292V15.1568C176.14 11.5259 174.212 8.82388 170.656 8.82388C167.572 8.82388 165.901 10.6393 163.116 12.877L161.659 14.0591Z" fill="#F8FAFC"/>
<path d="M180.516 18.3655C180.516 28.9626 186.6 35 196.239 35C205.836 35 211.919 29.0048 211.919 18.3655C211.919 7.72618 205.836 1.68878 196.239 1.68878C186.6 1.68878 180.516 7.89505 180.516 18.3655ZM196.025 3.29312C203.565 3.29312 205.922 10.5971 205.922 18.7033C205.922 26.3028 203.608 33.3957 196.111 33.3957C188.699 33.3957 186.385 25.8806 186.385 18.0277C186.385 10.6393 188.613 3.29312 196.025 3.29312Z" fill="#F8FAFC"/>
<path d="M221.278 13.9324C221.321 13.0458 221.321 11.9059 221.321 11.3993C221.321 9.92159 220.635 9.33052 219.693 9.33052C218.193 9.33052 212.763 10.3016 212.763 11.146C212.763 11.3571 212.891 11.5682 213.32 11.5682H213.78C216.522 11.5682 216.565 15.7057 216.565 20.9831V23.0096C216.565 31.2847 216.565 33.4379 213.009 33.4801C212.495 33.4801 212.238 33.7756 212.238 34.0712C212.238 34.3245 212.452 34.5778 212.881 34.5778H224.662C225.091 34.5778 225.305 34.3245 225.305 34.0712C225.305 33.7756 225.048 33.4801 224.491 33.4801C221.835 33.4801 221.749 32.5513 221.406 30.0181C221.235 28.8359 221.149 25.8384 221.149 23.0096V21.1942C221.149 19.1677 221.149 17.0989 221.192 15.7057C224.234 13.3414 225.948 11.7793 227.876 11.7793C230.018 11.7793 231.346 13.1725 231.346 22.0386C231.346 31.9602 230.575 33.4801 228.047 33.4801C227.533 33.4801 227.276 33.7756 227.276 34.0712C227.276 34.3245 227.49 34.5778 227.918 34.5778H239.529C239.957 34.5778 240.171 34.3245 240.171 34.0712C240.171 33.7756 239.914 33.4801 239.4 33.4801C237.087 33.4801 236.273 32.7624 236.273 30.2292V15.1568C236.273 11.5259 234.173 8.82388 230.618 8.82388C227.533 8.82388 225.305 10.5971 222.563 12.877L221.278 13.9324Z" fill="#F8FAFC"/>
<path d="M260 27.7805C260 27.4849 259.914 27.2738 259.657 27.2738C259.486 27.2738 259.315 27.3583 259.186 27.6116C257.601 30.8625 255.587 31.7491 252.674 31.7491C247.961 31.7491 245.005 27.1472 245.005 19.1255H257.387C259.229 19.1255 260 18.5766 260 17.0567C260 10.7238 255.33 8.82388 251.774 8.82388C243.891 8.82388 239.993 14.8613 239.993 22.6719C239.993 30.9469 244.491 35 250.875 35C257.429 35 260 30.3981 260 27.7805ZM250.917 10.1749C253.402 10.1749 254.645 12.0326 254.645 15.9168C254.645 16.8456 254.388 17.3945 252.974 17.4789L245.091 18.0277C245.605 13.8902 247.319 10.1749 250.917 10.1749Z" fill="#F8FAFC"/>
<path fill-rule="evenodd" clip-rule="evenodd" d="M290.667 12.5H273.333V30.5H290.667V12.5ZM269 8V35H295V8H269Z" fill="#F8FAFC"/>
</svg>
